<?xml version="1.0" encoding="utf-8"?>
<!-- Generator: Adobe Illustrator 25.4.1, SVG Export Plug-In . SVG Version: 6.00 Build 0)  -->
<svg version="1.1" id="Layer_1" xmlns="http://www.w3.org/2000/svg" xmlns:xlink="http://www.w3.org/1999/xlink" x="0px" y="0px"
	 viewBox="0 0 154.9 46.1" style="enable-background:new 0 0 154.9 46.1;" xml:space="preserve">
<style type="text/css">
	.st0{fill:#0071BB;}
	.st1{fill:#001422;}
</style>
<g id="BI">
	<path class="st0" d="M125.1,11.5c2.5,1.5,4.1,4,4.1,6.9c0,1.9-0.7,3.8-2,5.2c-1.5,1.6-3.7,2.1-5.7,2.6c-1.4,0.3-3.1,0.5-4.5,1.1
		c-1.5,0.6-3,1.6-3,3.4l15.6,0v5.1h-21.4v-4.4c0-2.7,1.2-5.2,4-7.1c2-1.4,4.3-2.1,6.7-2.5c2.1-0.4,4.9-0.6,4.9-3.4
		c0-2.7-3.4-3.6-5.7-3.5c-2.7,0.2-4.6,1.2-6,2.7l-3.8-3.5c2-2.4,5.8-4.3,9.8-4.4C120.6,9.9,123.1,10.3,125.1,11.5z"/>
	<g>
		<path class="st0" d="M131.1,24.7c-0.8,1-1.5,2.4-0.9,4.4c0.5,1.1,1.4,2.3,3.9,2.3h10.7v4.5h5.5v-4.5h4.5v-4.6h-4.5
			c0,0,0-13.1,0-13.1c0-2-1.5-3.4-3.6-3.6c-1.7-0.2-3.6,0.4-4.7,1.9L131.1,24.7z M144.8,15.7v11.1h-9.4L144.8,15.7z"/>
	</g>
	<g>
		<path class="st1" d="M75.9,21.3l-14.2,0c0,0,0-2.5,0-3c0-2,0.8-3,2.8-3l12.4,0v-5.1l-13.3,0c-4.9,0-7.4,2.9-7.4,7.1l0,18.5h5.5
			v-10h14.2V21.3z"/>
	</g>
	<g>
		<path class="st1" d="M105.5,21.3c-0.3-2.8-1.8-5.7-3.7-7.6c-2.4-2.4-5.7-3.9-9.4-3.9c-7.3,0-13.2,5.9-13.2,13.2
			c0,4.7,2.5,8.9,6.3,11.2c2.1,1.3,4.5,1.9,6.9,1.9c3.6,0,7-1.5,9.4-4l-3.9-3.4c-1.4,1.3-3.4,2.2-5.5,2.2c-2.1,0-4.2-0.9-5.7-2.4
			c-0.8-0.8-1.4-1.8-1.8-2.7h20.3C105.2,25.9,105.8,24,105.5,21.3z M84.5,21.3c0.3-1.4,1-2.8,2.1-3.9c2.6-2.6,6.6-3.1,9.6-1.4
			c2.2,1.2,3.5,3.3,3.9,5.3H84.5z"/>
	</g>
	<path class="st1" d="M13.8,31.5c-4.7,0-8.4-3.8-8.4-8.4c0-4.6,3.8-8.4,8.4-8.4c2.2,0,4.2,0.9,5.7,2.3l4.1-3.6
		c-2.5-2.5-6-4.1-9.8-4.1C6.1,9.2,0,15.4,0,23.1c0,7.6,6.2,13.8,13.8,13.8c3.8,0,7.3-1.5,9.8-4l-3.7-3.9
		C18.3,30.5,16.2,31.5,13.8,31.5z"/>
	<path class="st1" d="M45.2,10.3V13c-1.6-2-4.8-3.1-7.6-3.1c-7.3,0-13.2,5.9-13.2,13.2c0,7.2,5.9,13.1,13,13.1
		c2.8,0,5.9-0.8,7.8-3.1v2.8h5.6V10.3H45.2z M37.5,31c-4.4,0-8-3.6-8-8c0-4.4,3.6-8,8-8c4.4,0,8,3.6,8,8C45.6,27.4,42,31,37.5,31z"
		/>
</g>
</svg>
